<?xml version="1.0" standalone="no"?>
<!DOCTYPE svg PUBLIC "-//W3C//DTD SVG 20010904//EN"
 "http://www.w3.org/TR/2001/REC-SVG-20010904/DTD/svg10.dtd">
<svg version="1.0" xmlns="http://www.w3.org/2000/svg"
 width="436.000000pt" height="436.000000pt" viewBox="0 0 436.000000 436.000000"
 preserveAspectRatio="xMidYMid meet">
<metadata>
Created by potrace 1.14, written by Peter Selinger 2001-2017
</metadata>
<g transform="translate(0.000000,436.000000) scale(0.100000,-0.100000)"
fill="#000000" stroke="none">
<path d="M1637 3093 c-1 -1 -31 -4 -67 -7 -36 -3 -92 -12 -124 -21 -63 -18
-188 -65 -196 -74 -3 -3 -25 -17 -50 -30 -25 -14 -51 -31 -58 -38 -7 -7 -17
-13 -22 -13 -18 0 -178 -167 -219 -229 -108 -159 -159 -316 -168 -517 l-6
-131 -345 1 c-264 1 -346 -2 -349 -11 -4 -11 47 -95 98 -162 92 -118 235 -231
310 -245 13 -3 25 -5 27 -7 1 -1 11 -3 22 -4 11 -1 23 -4 28 -5 4 -1 11 -2 15
-1 5 1 29 3 55 5 26 2 71 14 100 25 30 12 57 19 61 16 29 -17 265 -27 347 -14
33 5 74 11 92 14 101 16 391 135 507 208 11 6 71 45 133 85 62 40 117 73 121
75 7 2 53 -37 175 -148 6 -6 31 -26 56 -45 25 -19 51 -41 59 -48 8 -8 24 -18
35 -23 12 -5 35 -18 51 -29 17 -10 64 -30 105 -44 85 -27 207 -33 288 -12 61
16 54 17 154 -32 84 -41 169 -69 236 -79 21 -4 37 -13 43 -27 5 -11 15 -30 21
-41 7 -11 31 -49 54 -85 78 -124 118 -150 228 -150 60 0 79 5 122 30 49 27
145 125 143 144 0 5 3 12 8 15 13 9 98 159 165 289 26 50 62 90 104 113 32 18
286 179 293 185 5 4 -35 175 -47 204 -3 8 -6 20 -7 25 -6 61 -136 323 -196
395 -115 139 -254 185 -373 125 -70 -35 -123 -92 -224 -236 -174 -249 -246
-281 -390 -173 -83 63 -155 87 -212 73 -17 -5 -24 -9 -70 -47 -116 -94 -132
-95 -154 -4 -17 69 -121 292 -136 292 -5 0 -11 8 -14 18 -14 44 -240 252 -274
252 -5 0 -12 3 -14 8 -8 19 -176 94 -243 108 -11 2 -31 6 -45 10 -42 9 -247
24 -253 17z"/>
</g>
</svg>
